<svg xmlns="http://www.w3.org/2000/svg" viewBox="0 0 92 72"><defs><style>.cls-1{fill:#007070;}</style></defs><title>Recurso 1logo</title><g id="Capa_2" data-name="Capa 2"><g id="Pagina_interna_Escritorio" data-name="Pagina interna Escritorio"><path class="cls-1" d="M41.73,48.68a16.61,16.61,0,0,0-2.05.93c2.5,2.2,6.37,0,9.51-2.78-.91.14-1.81.3-2.71.5A32,32,0,0,0,41.73,48.68Z"/><path class="cls-1" d="M46,0C20.59,0,0,16.12,0,36S20.59,72,46,72,92,55.88,92,36,71.41,0,46,0ZM80.17,47.07A108.17,108.17,0,0,0,62.66,46a27,27,0,0,1-3.54,5.07c-6.23,7-18.6,13.56-26.66,5.48-3.51-3.52-4.39-9.07-1-13S41.1,38.11,46,37.27a94,94,0,0,1,10-1.16,27.21,27.21,0,0,0,.42-6.71c-6.44,2.92-12.17,5.11-19.82,1.31C28,26.44,26.3,17.51,26.25,8.75c0-6.45,10-6.43,10,0,0,5.89.32,12.33,7.2,14,5.19,1.24,10.86-3.36,15.47-5.29,2.52-1.06,5.48,1.14,6.15,3.49a35.54,35.54,0,0,1,.93,15,132.58,132.58,0,0,1,16.83,1.52C89.18,38.41,86.47,48,80.17,47.07Z"/></g></g></svg>